HIERARCHY
ROOT Hips
{
	OFFSET 0.000000 83.214638 0.000000
	CHANNELS 6 Xposition Yposition Zposition Xrotation Yrotation Zrotation
	JOINT Pelvis
	{
		OFFSET 0.000000 0.000000 0.000000
		CHANNELS 3 Xrotation Yrotation Zrotation
		JOINT LeftUpLeg
		{
			OFFSET 8.479700 -4.795502 -0.379100
			CHANNELS 3 Xrotation Yrotation Zrotation
			JOINT LeftLeg
			{
				OFFSET 0.024144 -32.555107 0.112900
				CHANNELS 3 Xrotation Yrotation Zrotation
				JOINT LeftFoot
				{
					OFFSET -0.024144 -32.638630 -3.012600
					CHANNELS 3 Xrotation Yrotation Zrotation
					JOINT LeftToeBase
					{
						OFFSET 0.970200 -13.225400 11.864200
						CHANNELS 3 Xrotation Yrotation Zrotation
						End Site
						{
							OFFSET 0.000000 12.319262 0.000000
						}
					}
					JOINT LFootTongue
					{
						OFFSET 1.142400 -1.059800 6.665200
						CHANNELS 3 Xrotation Yrotation Zrotation
						End Site
						{
							OFFSET 0.000000 12.319262 0.000000
						}
					}
				}
				JOINT LeftPantLeg
				{
					OFFSET 0.918482 -16.533964 -2.284700
					CHANNELS 3 Xrotation Yrotation Zrotation
					End Site
					{
						OFFSET 0.350399 24.744368 0.000000
					}
				}
			}
		}
		JOINT RightUpLeg
		{
			OFFSET -8.479700 -4.795502 -0.379100
			CHANNELS 3 Xrotation Yrotation Zrotation
			JOINT RightLeg
			{
				OFFSET -0.023144 -32.555092 0.112900
				CHANNELS 3 Xrotation Yrotation Zrotation
				JOINT RightFoot
				{
					OFFSET 0.023144 -32.638641 -3.012700
					CHANNELS 3 Xrotation Yrotation Zrotation
					JOINT RightToeBase
					{
						OFFSET -0.970200 -13.225400 11.864200
						CHANNELS 3 Xrotation Yrotation Zrotation
						End Site
						{
							OFFSET 0.000000 12.319244 0.000000
						}
					}
					JOINT RFootTongue
					{
						OFFSET -1.142200 -1.059800 6.665200
						CHANNELS 3 Xrotation Yrotation Zrotation
						End Site
						{
							OFFSET 0.000000 12.319243 0.000000
						}
					}
				}
				JOINT RightPantLeg
				{
					OFFSET -0.919482 -16.533978 -2.284800
					CHANNELS 3 Xrotation Yrotation Zrotation
					End Site
					{
						OFFSET -0.350400 24.744419 0.000000
					}
				}
			}
		}
	}
	JOINT Spine
	{
		OFFSET 0.000000 7.722000 1.166200
		CHANNELS 3 Xrotation Yrotation Zrotation
		JOINT Spine1
		{
			OFFSET 0.000000 12.024101 0.248800
			CHANNELS 3 Xrotation Yrotation Zrotation
			JOINT Spine2
			{
				OFFSET 0.000000 11.502998 -0.491200
				CHANNELS 3 Xrotation Yrotation Zrotation
				JOINT Neck
				{
					OFFSET 0.000000 18.430702 -3.123100
					CHANNELS 3 Xrotation Yrotation Zrotation
					JOINT Head
					{
						OFFSET 0.000000 9.051102 1.034000
						CHANNELS 3 Xrotation Yrotation Zrotation
						JOINT HairB
						{
							OFFSET 0.208400 24.786102 24.822300
							CHANNELS 3 Xrotation Yrotation Zrotation
							End Site
							{
								OFFSET 0.000000 32.263779 0.000000
							}
						}
						JOINT HairA
						{
							OFFSET -7.081100 24.428299 23.196600
							CHANNELS 3 Xrotation Yrotation Zrotation
							End Site
							{
								OFFSET 0.000000 32.263779 0.000000
							}
						}
						JOINT Hat
						{
							OFFSET 16.728800 15.048294 -15.439601
							CHANNELS 3 Xrotation Yrotation Zrotation
							End Site
							{
								OFFSET 0.000000 32.263779 0.000000
							}
						}
					}
				}
				JOINT LeftShoulder
				{
					OFFSET 6.197800 13.665199 -4.064700
					CHANNELS 3 Xrotation Yrotation Zrotation
					JOINT LeftArm
					{
						OFFSET 7.778100 -0.187103 -1.709300
						CHANNELS 3 Xrotation Yrotation Zrotation
						JOINT LeftForeArm
						{
							OFFSET 22.049376 0.000000 0.000000
							CHANNELS 3 Xrotation Yrotation Zrotation
							JOINT LeftHand
							{
								OFFSET 23.009392 0.000000 0.000000
								CHANNELS 3 Xrotation Yrotation Zrotation
								JOINT LeftHandThumb1
								{
									OFFSET 3.507191 -2.063065 3.133727
									CHANNELS 3 Xrotation Yrotation Zrotation
									JOINT LeftHandThumb2
									{
										OFFSET 3.101337 -1.790558 1.790558
										CHANNELS 3 Xrotation Yrotation Zrotation
										JOINT LeftHandThumb3
										{
											OFFSET 3.058640 -1.765907 1.765906
											CHANNELS 3 Xrotation Yrotation Zrotation
											End Site
											{
												OFFSET -0.415260 3.926476 -0.049563
											}
										}
									}
								}
								JOINT LeftHandIndex1
								{
									OFFSET 11.334419 -0.901459 3.706815
									CHANNELS 3 Xrotation Yrotation Zrotation
									JOINT LeftHandIndex2
									{
										OFFSET 3.283112 0.000000 0.000000
										CHANNELS 3 Xrotation Yrotation Zrotation
										JOINT LeftHandIndex3
										{
											OFFSET 3.323853 0.000000 0.000000
											CHANNELS 3 Xrotation Yrotation Zrotation
											End Site
											{
												OFFSET -1.135597 3.097809 0.402452
											}
										}
									}
								}
								JOINT LeftHandMiddle1
								{
									OFFSET 11.335861 0.000000 0.000000
									CHANNELS 3 Xrotation Yrotation Zrotation
									JOINT LeftHandMiddle2
									{
										OFFSET 3.410492 0.000000 0.000000
										CHANNELS 3 Xrotation Yrotation Zrotation
										JOINT LeftHandMiddle3
										{
											OFFSET 3.312172 0.000000 0.000000
											CHANNELS 3 Xrotation Yrotation Zrotation
											End Site
											{
												OFFSET -1.150200 3.080154 0.400270
											}
										}
									}
								}
								JOINT LeftHandRing1
								{
									OFFSET 11.514786 -0.013176 -3.003090
									CHANNELS 3 Xrotation Yrotation Zrotation
									JOINT LeftHandRing2
									{
										OFFSET 3.053307 0.000000 0.000000
										CHANNELS 3 Xrotation Yrotation Zrotation
										JOINT LeftHandRing3
										{
											OFFSET 3.295807 0.000000 0.000000
											CHANNELS 3 Xrotation Yrotation Zrotation
											End Site
											{
												OFFSET -1.281006 3.013344 0.375733
											}
										}
									}
								}
								JOINT LeftHandPinky1
								{
									OFFSET 10.518692 -0.960396 -5.730441
									CHANNELS 3 Xrotation Yrotation Zrotation
									JOINT LeftHandPinky2
									{
										OFFSET 2.861649 0.000000 0.000000
										CHANNELS 3 Xrotation Yrotation Zrotation
										JOINT LeftHandPinky3
										{
											OFFSET 2.863380 0.000000 0.000000
											CHANNELS 3 Xrotation Yrotation Zrotation
											End Site
											{
												OFFSET -0.843597 2.711159 0.369971
											}
										}
									}
								}
							}
							JOINT LSleeve
							{
								OFFSET 6.676277 -0.344902 -1.011730
								CHANNELS 3 Xrotation Yrotation Zrotation
								End Site
								{
									OFFSET 0.000000 14.885353 0.000000
								}
							}
						}
					}
				}
				JOINT RightShoulder
				{
					OFFSET -6.197800 13.665199 -4.064700
					CHANNELS 3 Xrotation Yrotation Zrotation
					JOINT RightArm
					{
						OFFSET -7.778100 -0.187103 -1.709300
						CHANNELS 3 Xrotation Yrotation Zrotation
						JOINT RightForeArm
						{
							OFFSET -22.049376 0.000000 0.000000
							CHANNELS 3 Xrotation Yrotation Zrotation
							JOINT RightHand
							{
								OFFSET -23.009392 0.000000 0.000000
								CHANNELS 3 Xrotation Yrotation Zrotation
								JOINT RightHandThumb1
								{
									OFFSET -3.507191 -2.063065 3.133727
									CHANNELS 3 Xrotation Yrotation Zrotation
									JOINT RightHandThumb2
									{
										OFFSET -3.101337 -1.790558 1.790558
										CHANNELS 3 Xrotation Yrotation Zrotation
										JOINT RightHandThumb3
										{
											OFFSET -3.058640 -1.765907 1.765906
											CHANNELS 3 Xrotation Yrotation Zrotation
											End Site
											{
												OFFSET 0.415260 3.926476 -0.049563
											}
										}
									}
								}
								JOINT RightHandIndex1
								{
									OFFSET -11.334419 -0.901459 3.706815
									CHANNELS 3 Xrotation Yrotation Zrotation
									JOINT RightHandIndex2
									{
										OFFSET -3.283112 0.000000 0.000000
										CHANNELS 3 Xrotation Yrotation Zrotation
										JOINT RightHandIndex3
										{
											OFFSET -3.323853 0.000000 0.000000
											CHANNELS 3 Xrotation Yrotation Zrotation
											End Site
											{
												OFFSET 1.135597 3.097809 0.402452
											}
										}
									}
								}
								JOINT RightHandMiddle1
								{
									OFFSET -11.335861 0.000000 0.000000
									CHANNELS 3 Xrotation Yrotation Zrotation
									JOINT RightHandMiddle2
									{
										OFFSET -3.410492 0.000000 0.000000
										CHANNELS 3 Xrotation Yrotation Zrotation
										JOINT RightHandMiddle3
										{
											OFFSET -3.312172 0.000000 0.000000
											CHANNELS 3 Xrotation Yrotation Zrotation
											End Site
											{
												OFFSET 1.150200 3.080154 0.400270
											}
										}
									}
								}
								JOINT RightHandRing1
								{
									OFFSET -11.514786 -0.013176 -3.003090
									CHANNELS 3 Xrotation Yrotation Zrotation
									JOINT RightHandRing2
									{
										OFFSET -3.053307 0.000000 0.000000
										CHANNELS 3 Xrotation Yrotation Zrotation
										JOINT RightHandRing3
										{
											OFFSET -3.295807 0.000000 0.000000
											CHANNELS 3 Xrotation Yrotation Zrotation
											End Site
											{
												OFFSET 1.281006 3.013344 0.375733
											}
										}
									}
								}
								JOINT RightHandPinky1
								{
									OFFSET -10.518692 -0.960396 -5.730441
									CHANNELS 3 Xrotation Yrotation Zrotation
									JOINT RightHandPinky2
									{
										OFFSET -2.861649 0.000000 0.000000
										CHANNELS 3 Xrotation Yrotation Zrotation
										JOINT RightHandPinky3
										{
											OFFSET -2.863380 0.000000 0.000000
											CHANNELS 3 Xrotation Yrotation Zrotation
											End Site
											{
												OFFSET 0.843597 2.711159 0.369971
											}
										}
									}
								}
							}
							JOINT RSleeve
							{
								OFFSET -6.676277 -0.344902 -1.011730
								CHANNELS 3 Xrotation Yrotation Zrotation
								End Site
								{
									OFFSET 0.000000 14.885353 0.000000
								}
							}
						}
					}
				}
				JOINT Backpack
				{
					OFFSET 0.000000 -2.471497 36.677502
					CHANNELS 3 Xrotation Yrotation Zrotation
					End Site
					{
						OFFSET 0.000000 20.427315 0.000000
					}
				}
				JOINT Hood
				{
					OFFSET 0.000000 18.754097 -10.431000
					CHANNELS 3 Xrotation Yrotation Zrotation
					JOINT Hood1
					{
						OFFSET 0.000000 -5.011002 -7.685901
						CHANNELS 3 Xrotation Yrotation Zrotation
						End Site
						{
							OFFSET 0.000000 9.175140 0.000000
						}
					}
				}
				JOINT LHoodieString
				{
					OFFSET 5.250500 16.397697 3.089900
					CHANNELS 3 Xrotation Yrotation Zrotation
					JOINT LHoodieString1
					{
						OFFSET 0.257700 -6.364304 3.694600
						CHANNELS 3 Xrotation Yrotation Zrotation
						JOINT LHoodieString2
						{
							OFFSET 0.000000 -9.643799 2.679100
							CHANNELS 3 Xrotation Yrotation Zrotation
							End Site
							{
								OFFSET 0.000000 10.009018 0.000000
							}
						}
					}
				}
				JOINT RHoodieString
				{
					OFFSET -5.250500 16.397697 3.089900
					CHANNELS 3 Xrotation Yrotation Zrotation
					JOINT RHoodieString1
					{
						OFFSET -0.257700 -6.364304 3.694600
						CHANNELS 3 Xrotation Yrotation Zrotation
						JOINT RHoodieString2
						{
							OFFSET 0.000000 -9.643799 2.679100
							CHANNELS 3 Xrotation Yrotation Zrotation
							End Site
							{
								OFFSET 0.000000 10.009018 0.000000
							}
						}
					}
				}
			}
			JOINT LBackpack_Strap
			{
				OFFSET 15.223200 -7.719803 -6.610900
				CHANNELS 3 Xrotation Yrotation Zrotation
				End Site
				{
					OFFSET 0.000000 16.040596 0.000000
				}
			}
			JOINT RBackpack_Strap
			{
				OFFSET -15.223000 -7.719803 -6.610900
				CHANNELS 3 Xrotation Yrotation Zrotation
				End Site
				{
					OFFSET 0.000000 16.040596 0.000000
				}
			}
		}
	}
	JOINT BoyFacialAnim_Joint
	{
		OFFSET 1.000000 -82.208099 -1.550900
		CHANNELS 3 Xrotation Yrotation Zrotation
		End Site
		{
			OFFSET 0.000000 30.012791 0.000000
		}
	}
}
MOTION
Frames: 4
Frame Time: 0.033333
-0.221187 83.427048 -0.740892 -3.422175 3.913427 -3.551062 -0.000000 0.000000 -0.000000 -26.888271 -10.161395 -0.574818 51.741941 -1.193418 -0.092763 16.755678 2.991349 10.551683 -0.000001 -0.000000 0.000000 -0.000001 -0.000000 0.000000 -0.000000 -0.000000 -0.000000 -12.718869 -10.534391 7.955284 28.558933 0.238064 0.011221 14.980162 -0.488897 -7.557627 -0.000000 0.000000 -0.000000 -0.000000 0.000000 -0.000000 0.000001 -0.000000 -0.000000 7.485103 -0.349329 -0.421475 -2.114711 -0.634070 1.955414 -2.107415 -0.526124 1.991272 -6.842522 -2.682119 0.508905 2.526567 0.704222 0.466794 0.000000 -0.000000 -0.000000 0.000000 -0.000000 -0.000000 0.000000 -0.000000 -0.000000 1.091372 1.577349 -3.543028 -1.207624 1.492999 -78.012713 20.698690 -13.799908 -0.079124 -0.026811 -3.262509 -0.409735 10.552738 -2.875757 25.084141 -5.461384 26.109894 -7.052490 0.000001 -0.000000 -0.000000 2.370777 3.636167 -10.145340 -2.142886 2.444069 -20.340892 0.000001 0.000000 -0.000004 -1.982262 5.662073 -18.668403 0.275104 5.074440 -32.023342 0.000000 -0.000000 -0.000003 -4.973882 10.117869 -16.315184 4.012966 4.059223 -38.804221 0.000000 0.000000 -0.000000 -6.470722 11.328492 -26.084274 10.717572 2.571492 -37.641248 -0.000000 0.000001 0.000003 -0.000001 0.000000 0.000000 0.465992 5.360073 4.356355 -7.233188 4.755349 74.516654 13.992710 13.434367 -4.480362 0.106158 3.507011 -2.693515 15.559707 -0.734702 -16.766613 -6.572496 -24.365901 7.032903 0.000000 0.000001 -0.000001 2.247865 -2.300783 4.751410 -2.161314 -2.447222 14.947761 0.000002 0.000000 0.000005 -1.988444 -5.673200 8.744608 0.268659 -5.083165 22.100021 -0.000000 0.000002 -0.000002 -4.969195 -10.105405 7.767878 4.018617 -4.034840 30.251485 -0.000003 0.000003 0.000003 -6.478565 -11.315207 16.982466 10.696662 -2.547185 28.534727 0.000003 -0.000000 0.000002 0.000001 -0.000000 0.000000 0.000000 -0.000000 -0.000000 0.000000 -0.000000 -0.000000 0.000000 -0.000000 -0.000000 0.000000 -0.000000 -0.000000 0.000000 -0.000000 -0.000000 0.000000 -0.000000 -0.000000 0.000000 -0.000000 -0.000000 0.000000 -0.000000 -0.000000 0.000000 -0.000000 -0.000000 -0.000000 -0.000000 -0.000000 -0.000000 -0.000000 -0.000000 -0.000000 0.000000 -0.000000 
-0.032687 83.871094 0.695376 -3.538903 2.178691 -2.349241 -0.000000 0.000000 -0.000000 -28.674705 -8.853444 -0.841581 45.874798 -0.146101 -0.009208 16.555077 3.203254 9.029603 0.000002 0.000001 0.000000 0.000002 0.000001 0.000000 0.000000 -0.000000 0.000000 -10.944863 -9.441659 6.838960 27.235482 0.858374 0.056268 14.435195 -0.504867 -7.573765 0.000001 -0.000000 -0.000000 0.000001 -0.000000 -0.000000 0.000000 -0.000000 -0.000001 8.143234 -0.044173 -1.424741 -2.402877 -0.188273 1.816870 -2.413006 -0.102975 1.813038 -6.541556 -2.355252 0.238941 1.959947 0.829113 0.803423 0.000000 0.000000 -0.000000 0.000000 0.000000 -0.000000 0.000000 0.000000 -0.000000 1.089362 1.951549 -3.593251 -0.852273 0.638655 -77.724486 19.406188 -14.880225 -0.048545 -0.017051 -3.268816 -0.226551 10.556764 -2.873599 25.075520 -5.469548 26.091444 -7.054080 0.000001 -0.000001 0.000004 2.368880 3.617383 -10.124382 -2.142934 2.443526 -20.314547 -0.000003 -0.000002 -0.000004 -1.982588 5.661313 -18.622473 0.273710 5.074330 -31.978512 0.000001 0.000001 0.000000 -4.972621 10.117095 -16.278853 4.012988 4.058344 -38.767737 -0.000000 0.000000 -0.000004 -6.467215 11.339762 -26.041734 10.717049 2.570997 -37.607828 -0.000000 -0.000001 0.000001 0.000000 -0.000000 0.000000 0.506717 5.940126 4.115533 -7.759424 5.327403 74.842440 13.591825 15.846324 -4.764640 0.111004 3.718160 -2.856913 15.559683 -0.734704 -16.766610 -6.560550 -24.387932 7.033543 0.000000 0.000002 -0.000004 2.247848 -2.300797 4.751365 -2.162327 -2.428095 14.985425 -0.000002 -0.000001 0.000002 -1.988423 -5.673272 8.748419 0.269869 -5.072646 22.160042 0.000001 0.000001 0.000003 -4.969217 -10.105393 7.767867 4.018448 -4.035906 30.296086 0.000003 -0.000000 0.000002 -6.478447 -11.315281 16.987440 10.697277 -2.547998 28.580377 0.000001 0.000001 0.000002 0.000002 0.000000 0.000002 -0.000000 -0.000000 0.000000 -0.000000 -0.000000 0.000000 -0.000000 -0.000000 0.000000 -0.000000 -0.000000 0.000000 -0.000000 -0.000000 0.000000 -0.000000 -0.000000 0.000000 -0.000000 -0.000000 0.000000 -0.000000 -0.000000 0.000000 -0.000000 -0.000000 0.000000 0.000000 -0.000000 0.000000 0.000000 -0.000000 0.000000 -0.000000 0.000000 -0.000000 
0.232339 84.175514 2.148447 -3.497335 0.212290 -1.379609 -0.000000 0.000000 -0.000000 -29.945397 -6.781629 -0.963655 38.830196 -2.625111 -0.207752 18.408396 3.192366 9.186512 -0.000001 0.000000 -0.000001 -0.000001 0.000000 -0.000000 -0.000000 0.000001 0.000000 -9.386307 -9.795828 5.375155 26.394552 3.354072 0.257029 13.639391 -0.497009 -8.081371 -0.000001 0.000000 -0.000000 -0.000001 0.000000 -0.000000 0.000000 -0.000000 0.000001 8.618261 0.319618 -1.850604 -2.636479 0.273919 1.509511 -2.660877 0.322031 1.461873 -6.482013 -1.954674 -0.144650 1.497904 0.974332 1.153788 0.000000 -0.000000 -0.000000 0.000000 -0.000000 -0.000000 0.000000 -0.000000 -0.000000 1.112971 2.227392 -3.826859 -0.391864 -0.248665 -77.194293 18.248271 -15.613452 0.123365 -0.006007 -3.628255 -0.157450 10.557769 -2.863474 25.045790 -5.493484 26.036475 -7.052093 0.000001 -0.000001 0.000002 2.353918 3.563547 -10.062504 -2.143040 2.442009 -20.237529 -0.000005 0.000001 -0.000003 -1.983505 5.659139 -18.488272 0.269727 5.073952 -31.847509 0.000004 -0.000001 0.000002 -4.967280 10.114921 -16.172966 4.010829 4.055742 -38.661009 -0.000001 -0.000002 -0.000004 -6.451699 11.373037 -25.918382 10.715458 2.569478 -37.510313 -0.000001 0.000002 0.000003 0.000001 -0.000000 0.000000 0.538597 6.386755 3.768538 -8.450225 6.250897 75.161662 13.728573 17.907185 -4.764985 0.124768 4.155659 -3.195435 15.561017 -0.738584 -16.766368 -6.525599 -24.452315 7.035406 0.000000 0.000000 -0.000002 2.248052 -2.303320 4.762549 -2.176392 -2.372757 15.095032 0.000000 0.000002 0.000002 -1.988378 -5.673516 8.763332 0.273448 -5.041839 22.335682 0.000002 0.000000 0.000003 -4.969272 -10.105618 7.776981 4.017949 -4.039057 30.426433 -0.000001 0.000001 -0.000001 -6.477942 -11.315608 17.007011 10.699086 -2.550353 28.713975 -0.000002 -0.000000 0.000002 -0.000001 -0.000000 0.000001 0.000000 -0.000000 0.000000 0.000000 -0.000000 0.000000 0.000000 -0.000000 0.000000 0.000000 -0.000000 0.000000 0.000000 -0.000000 0.000000 0.000000 -0.000000 0.000000 0.000000 -0.000000 0.000000 0.000000 -0.000000 0.000000 0.000000 -0.000000 0.000000 -0.000000 -0.000000 0.000000 -0.000000 -0.000000 0.000000 -0.000000 0.000000 -0.000000 
0.517770 84.271988 3.664054 -3.283691 -1.647529 -0.893794 0.000000 -0.000000 -0.000000 -31.090304 -3.758537 -0.433641 32.108832 -5.091141 -0.406379 20.356978 2.718095 9.934841 -0.000001 0.000000 -0.000001 -0.000001 0.000000 -0.000000 -0.000000 0.000000 -0.000000 -8.245250 -10.582531 4.181163 26.195305 6.167024 0.495699 12.544213 -0.452191 -8.641931 0.000001 -0.000000 0.000000 0.000001 -0.000000 0.000000 0.000000 0.000000 0.000000 8.731987 0.672995 -1.461009 -2.747168 0.603099 1.096567 -2.771077 0.616514 1.018766 -6.466130 -1.449446 -0.574065 1.079865 1.240579 1.299917 -0.000000 0.000000 0.000000 -0.000000 0.000000 0.000000 -0.000000 0.000000 0.000000 1.158544 2.533980 -4.250686 0.068531 -0.995493 -76.542699 17.004026 -16.037732 0.197144 -0.001289 -3.854491 -0.095397 10.557764 -2.851633 24.997575 -5.528206 25.945365 -7.047520 -0.000000 0.000001 0.000001 2.329987 3.476578 -9.962599 -2.143168 2.439519 -20.113124 -0.000001 -0.000002 -0.000002 -1.985021 5.655605 -18.271559 0.263292 5.073338 -31.635821 -0.000001 -0.000001 -0.000003 -4.959986 10.111360 -16.001697 4.004555 4.051598 -38.488362 -0.000002 0.000000 -0.000002 -6.426974 11.426973 -25.719035 10.703929 2.570308 -37.352942 -0.000000 -0.000000 0.000003 0.000001 0.000001 -0.000000 0.584771 6.948528 3.199882 -9.069219 7.917631 75.581637 13.401501 19.533938 -4.752218 0.074254 4.664708 -3.082066 15.564772 -0.749398 -16.765702 -6.461264 -24.551957 7.035604 0.000002 0.000001 -0.000003 2.248684 -2.310272 4.780667 -2.199557 -2.283324 15.272392 -0.000001 0.000002 0.000002 -1.988260 -5.673957 8.787546 0.279239 -4.991843 22.620034 0.000002 0.000001 -0.000000 -4.969364 -10.105917 7.791753 4.017180 -4.044155 30.637589 -0.000000 0.000001 0.000001 -6.477085 -11.316063 17.038703 10.701902 -2.550492 28.929635 0.000000 -0.000002 0.000002 -0.000002 -0.000004 0.000002 0.000000 -0.000000 0.000000 0.000000 -0.000000 0.000000 0.000000 -0.000000 0.000000 0.000000 -0.000000 0.000000 0.000000 -0.000000 0.000000 0.000000 -0.000000 0.000000 0.000000 -0.000000 0.000000 0.000000 -0.000000 0.000000 0.000000 -0.000000 0.000000 -0.000000 0.000000 0.000000 -0.000000 0.000000 0.000000 0.000000 -0.000000 -0.000000 
